<?xml version="1.0" encoding="UTF-8" standalone="no"?>
<!-- Created with Inkscape (http://www.inkscape.org/) -->

<svg
   width="512"
   height="512"
   viewBox="0 0 135.46667 135.46667"
   version="1.1"
   id="svg1"
   inkscape:version="1.3.2 (091e20e, 2023-11-25, custom)"
   sodipodi:docname="addBall.svg"
   xmlns:inkscape="http://www.inkscape.org/namespaces/inkscape"
   xmlns:sodipodi="http://sodipodi.sourceforge.net/DTD/sodipodi-0.dtd"
   xmlns="http://www.w3.org/2000/svg"
   xmlns:svg="http://www.w3.org/2000/svg">
  <sodipodi:namedview
     id="namedview1"
     pagecolor="#ffffff"
     bordercolor="#666666"
     borderopacity="1.0"
     inkscape:showpageshadow="2"
     inkscape:pageopacity="0.0"
     inkscape:pagecheckerboard="0"
     inkscape:deskcolor="#d1d1d1"
     inkscape:document-units="mm"
     inkscape:zoom="0.69397447"
     inkscape:cx="396.26818"
     inkscape:cy="215.42579"
     inkscape:window-width="1920"
     inkscape:window-height="1017"
     inkscape:window-x="-8"
     inkscape:window-y="-8"
     inkscape:window-maximized="1"
     inkscape:current-layer="layer1" />
  <defs
     id="defs1" />
  <g
     inkscape:label="Layer 1"
     inkscape:groupmode="layer"
     id="layer1">
    <path
       id="path1"
       style="fill:none;fill-opacity:0;fill-rule:evenodd;stroke:#000000;stroke-width:5.29168;stroke-linecap:round;stroke-linejoin:miter;stroke-dasharray:none;paint-order:normal"
       d="m 83.362354,51.935331 a 22.836662,22.83666 0 0 0 -2.143022,9.63197 22.836662,22.83666 0 0 0 22.836848,22.836849 22.836662,22.83666 0 0 0 9.63197,-2.143021 35.456998,35.456998 0 0 0 -30.325796,-30.325798 z m -4.788855,-0.342615 a 35.456998,35.456998 0 0 0 -35.456751,35.457268 35.456998,35.456998 0 0 0 0.342098,4.788855 22.83666,22.83666 0 0 1 9.63197,-2.143022 22.83666,22.83666 0 0 1 22.836849,22.836333 22.83666,22.83666 0 0 1 -2.143021,9.63249 35.456998,35.456998 0 0 0 4.788855,0.34209 35.456998,35.456998 0 0 0 35.457271,-35.456746 35.456998,35.456998 0 0 0 -0.34262,-4.788855 22.836662,22.83666 0 0 1 -9.63197,2.143021 22.836662,22.83666 0 0 1 -22.836848,-22.836849 22.836662,22.83666 0 0 1 2.143022,-9.63197 35.456998,35.456998 0 0 0 -4.788855,-0.342615 z m -4.788855,70.571924 a 22.83666,22.83666 0 0 0 2.143021,-9.63249 22.83666,22.83666 0 0 0 -22.836849,-22.836333 22.83666,22.83666 0 0 0 -9.63197,2.143022 35.456998,35.456998 0 0 0 30.325798,30.325801 z" />
    <path
       sodipodi:type="star"
       style="fill:none;fill-opacity:1;fill-rule:evenodd;stroke:#000000;stroke-width:6.82481;stroke-linecap:round;stroke-dasharray:none;stroke-opacity:1;paint-order:stroke fill markers"
       id="path3"
       inkscape:flatsided="false"
       sodipodi:sides="4"
       sodipodi:cx="-41.175865"
       sodipodi:cy="16.775352"
       sodipodi:r1="10.723047"
       sodipodi:r2="26.153774"
       sodipodi:arg1="0.36059558"
       sodipodi:arg2="1.1735054"
       inkscape:rounded="0.44"
       inkscape:randomized="0"
       d="m -31.142451,20.558782 c -3.385799,8.281325 8.237567,16.645923 0.08605,20.333295 -7.933501,3.588751 -5.843057,-10.788067 -13.902892,-14.08331 -8.281324,-3.385799 -16.645922,8.237567 -20.333294,0.08605 -3.588751,-7.933501 10.788066,-5.843057 14.08331,-13.902892 3.385798,-8.2813248 -8.237568,-16.6459226 -0.08605,-20.3332947 7.933501,-3.5887513 5.843057,10.7880664 13.902892,14.0833099 8.281325,3.3857988 16.645923,-8.2375672 20.333295,-0.086048 3.588751,7.9335012 -10.788066,5.8430572 -14.08331,13.9028922 z"
       transform="matrix(0.70918431,0.31342595,-0.31342595,0.70918431,66.859032,37.305921)" />
  </g>
</svg>
