<?xml version="1.0" encoding="UTF-8" standalone="no"?>
<!-- Created with Inkscape (http://www.inkscape.org/) -->

<svg
   width="1024"
   height="1024"
   viewBox="0 0 1024 1024"
   version="1.1"
   id="svg1"
   inkscape:version="1.3.2 (091e20e, 2023-11-25, custom)"
   sodipodi:docname="icon.svg"
   inkscape:export-filename="icon.png"
   inkscape:export-xdpi="96"
   inkscape:export-ydpi="96"
   xmlns:inkscape="http://www.inkscape.org/namespaces/inkscape"
   xmlns:sodipodi="http://sodipodi.sourceforge.net/DTD/sodipodi-0.dtd"
   xmlns="http://www.w3.org/2000/svg"
   xmlns:svg="http://www.w3.org/2000/svg">
  <sodipodi:namedview
     id="namedview1"
     pagecolor="#ffffff"
     bordercolor="#666666"
     borderopacity="1.0"
     inkscape:showpageshadow="2"
     inkscape:pageopacity="0.0"
     inkscape:pagecheckerboard="0"
     inkscape:deskcolor="#d1d1d1"
     inkscape:document-units="px"
     inkscape:zoom="0.24756324"
     inkscape:cx="-500.88212"
     inkscape:cy="1023.9808"
     inkscape:window-width="1920"
     inkscape:window-height="1017"
     inkscape:window-x="1912"
     inkscape:window-y="-8"
     inkscape:window-maximized="1"
     inkscape:current-layer="layer1" />
  <defs
     id="defs1">
    <inkscape:path-effect
       effect="powerstroke"
       id="path-effect15"
       is_visible="true"
       lpeversion="1.3"
       scale_width="28.609626"
       interpolator_type="CentripetalCatmullRom"
       interpolator_beta="0.22727273"
       start_linecap_type="butt"
       end_linecap_type="butt"
       offset_points="0.2,0.5 | 0.95499648,1.2605087 | 2.8,0.5"
       linejoin_type="round"
       miter_limit="4"
       not_jump="false"
       sort_points="true"
       message="&lt;b&gt;Ctrl + click&lt;/b&gt; on existing node and move it" />
  </defs>
  <g
     inkscape:label="Layer 1"
     inkscape:groupmode="layer"
     id="layer1">
    <rect
       style="fill:#ffffff;fill-opacity:1;fill-rule:evenodd;stroke:none;stroke-width:39.9999;stroke-linecap:round;stroke-dasharray:none;stroke-opacity:1;paint-order:stroke fill markers"
       id="rect17"
       width="1022.4316"
       height="1020.173"
       x="1.440975"
       y="1.9135029" />
    <path
       d="M 512,140.18555 C 306.6549,140.18575 140.18575,306.6549 140.18555,512 c 1e-4,98.61021 39.17439,193.18416 108.90234,262.91211 69.72795,69.72795 164.3019,108.90225 262.91211,108.90234 98.61021,-9e-5 193.18416,-39.17439 262.91211,-108.90234 C 844.64006,705.18416 883.81436,610.61021 883.81445,512 V 223.13867 c -3.3e-4,-45.81329 -37.13984,-82.9528 -82.95312,-82.95312 z"
       style="fill:none;fill-rule:evenodd;stroke:#000000;stroke-width:40;paint-order:stroke fill markers"
       id="path17" />
    <path
       style="fill:#000000;fill-rule:nonzero;stroke:none;stroke-width:1.36291px;stroke-linecap:butt;stroke-linejoin:miter;stroke-opacity:1"
       d="m 766.67722,622.60644 c 0.0871,4.8e-4 -1.41555,0.38121 -10.72089,0.19577 -8.77223,-0.17482 -26.98701,-1.00049 -52.71274,-4.11089 -9.25265,-1.11871 -20.00767,-2.63035 -32.05455,-4.6028 -45.1325,-7.38959 -126.14316,-24.1718 -209.5997,-58.23052 -36.21973,-14.78132 -74.15807,-33.32064 -110.38208,-56.57017 -33.94798,-21.78872 -66.54583,-47.81144 -94.91533,-78.96432 -27.01258,-29.66284 -50.37523,-64.16896 -67.53637,-104.6042 -10.68116,-25.16708 -19.0702,-52.88555 -24.40405,-83.5247 -2.87095,-16.49157 -4.96358,-34.45248 -5.92189,-53.98985 -0.2878,-7.23541 0.87479,-12.45953 2.60942,-16.38182 1.59623,-3.60936 4.19237,-7.29751 8.62751,-11.00008 4.34302,-3.62566 10.65443,-7.41997 19.64704,-10.81535 8.60763,-3.25003 19.2346,-5.96635 32.01474,-7.83367 24.443,-3.5714 54.95071,-3.76691 90.01578,0.0637 33.22375,3.62943 69.42906,10.76249 106.00521,21.18816 35.41544,10.09482 70.57836,23.11246 102.61152,38.4419 31.56868,15.10717 59.31338,32.08816 80.9056,50.042 10.69942,8.89652 19.64765,17.8329 26.7616,26.67214 7.11555,8.84123 12.23008,17.37759 15.52509,25.51125 3.27517,8.08468 4.81072,15.89981 4.68747,23.56436 -0.12401,7.71187 -1.93774,15.99955 -6.23755,24.96447 -11.9175,24.34154 -29.51093,51.19886 -51.17394,79.43577 -22.33963,29.11887 -48.60187,59.18405 -76.59526,88.88307 -60.94016,64.65324 -130.87217,128.39611 -188.61629,178.62207 -48.15468,41.88504 -92.49619,78.41002 -123.90789,103.82804 -31.65401,25.61409 -56.57514,45.12883 -70.99685,56.21703 -22.35515,17.18787 -35.836256,27.04096 -41.74612,31.27464 -3.239146,2.32044 -10.81867,7.55307 -7.579523,5.23263 l 16.70658,23.225 c 0.01752,-0.0126 0.946825,-0.84519 7.485243,-5.7121 6.53842,-4.8669 18.88864,-13.88046 42.33942,-31.16234 14.07565,-10.37295 41.07757,-30.18092 73.09101,-54.41741 32.63661,-24.70829 78.01135,-59.69035 128.11258,-100.59031 59.77588,-48.79783 132.55874,-111.13945 197.14934,-175.29385 29.64427,-29.44406 58.05615,-59.75824 82.77357,-89.60828 23.82046,-28.76682 44.70056,-57.68884 59.92915,-85.45258 8.09536,-14.80796 12.86816,-30.30354 14.12869,-46.25267 1.25083,-15.82638 -1.01752,-31.3314 -6.07001,-46.18397 -5.00822,-14.72239 -12.69327,-28.64819 -22.20778,-41.67231 -9.50766,-13.01472 -20.97617,-25.3146 -33.79836,-36.85068 C 614.90432,173.00132 583.0186,152.28959 548.52427,134.5059 513.34133,116.36718 475.00767,101.04539 436.59926,89.062536 396.93717,76.68856 357.12155,67.836882 319.72588,62.927446 280.57871,57.788067 243.77959,56.925297 211.70747,60.99754 c -16.8965,2.145372 -32.80849,5.698648 -47.31491,10.908052 -15.20027,5.458572 -29.09987,12.808751 -41.02653,22.546624 -12.72347,10.388464 -22.72215,23.145214 -29.24178,38.078224 -6.948262,15.91479 -9.286374,32.77126 -8.307153,49.50859 1.267714,22.61678 3.913154,43.60452 7.570615,63.04766 6.804168,36.17112 17.514928,69.11125 31.235528,99.03682 22.0507,48.09403 51.73994,88.07228 84.93052,121.08932 34.73587,34.55423 73.55857,61.77288 112.35992,83.29037 41.42264,22.97115 83.80194,39.98931 123.17514,52.7126 90.66498,29.29801 175.74701,39.07815 222.25465,43.28647 12.43594,1.12528 23.6676,1.97846 33.15638,2.6668 25.02751,1.81558 46.76785,2.86441 54.43464,3.27309 9.70666,0.51743 11.49884,0.773 11.58591,0.77348 z"
       id="path15"
       sodipodi:nodetypes="cssc"
       inkscape:path-effect="#path-effect15"
       inkscape:original-d="m 766.59881,636.91104 c 0,0 -620.53422,-3.40136 -644.47545,-456.78914 C 111.60994,-18.976388 764.5842,163.96587 665.08856,354.86249 557.76928,560.7699 89.340467,897.72755 89.340467,897.72755"
       transform="matrix(0.73372424,0,0,0.73372424,212.43998,307.59504)" />
  </g>
</svg>
